<?xml version="1.0" standalone="no"?>
<!DOCTYPE svg PUBLIC "-//W3C//DTD SVG 1.1//EN" "http://www.w3.org/Graphics/SVG/1.1/DTD/svg11.dtd" >
<svg>
<metadata>
Created by FontForge 20110222 at Mon Mar  7 11:02:00 2011
 By www-data
Copyright (c) Beno?t Sj?holm, 2009. All rights reserved.
</metadata>
<defs>
<font id="Alice" horiz-adv-x="614" >
  <font-face 
    font-family="Alice"
    font-weight="400"
    font-stretch="normal"
    units-per-em="1000"
    panose-1="0 0 0 0 0 0 0 0 0 0"
    ascent="750"
    descent="-250"
    x-height="498"
    cap-height="730"
    bbox="-89 -240 867 739"
    underline-thickness="50"
    underline-position="-50"
    unicode-range="U+0020-007A"
  />
    <missing-glyph />
    <glyph glyph-name="space" unicode=" " horiz-adv-x="223" 
 />
    <glyph glyph-name="space" unicode="&#xa0;" horiz-adv-x="223" 
 />
    <glyph glyph-name="d" unicode="d" horiz-adv-x="601" 
d="M169 353q-57 0 -102.5 -31t-66.5 -80v103q0 35 13 65.5t36 53.5t54 36.5t66 13.5h332q-2 -34 -15.5 -63.5t-36.5 -51t-53 -34t-64 -12.5h-156h-7zM501 168q0 -35 -13.5 -65.5t-36.5 -53.5t-53.5 -36t-65.5 -13h-103q49 21 80 66t31 102v7v162q54 2 97 32.5t64 78.5v-280z
M340 529v41q0 34 12.5 64t34 53t51 36.5t63.5 15.5v-210h-161zM162 0q-34 1 -63.5 14.5t-51.5 36.5t-34.5 53t-12.5 64t12.5 64t34 53t51 36.5t63.5 15.5v-162v-7q0 -45 20 -83.5t55 -64.5q-34 -19 -74 -20z" />
    <glyph glyph-name="e" unicode="e" horiz-adv-x="615" 
d="M0 346v-1v1zM346 514q35 0 65.5 -13.5t53.5 -36.5t36.5 -53.5t13.5 -65.5t-13.5 -65.5t-36.5 -53.5t-53.5 -36.5t-65.5 -13.5h-103q48 21 78.5 64t32.5 98v7v1v-1q0 48 -22 87.5t-59 64.5q34 17 73 17zM0 271q22 -49 67 -79.5t102 -30.5h8h156q34 0 64 -12.5t52.5 -34.5
t36 -51.5t15.5 -62.5h-332q-35 0 -65.5 13t-53.5 36t-36.5 53.5t-13.5 65.5v103zM162 176q-34 1 -63.5 15t-51 37t-34.5 53t-13 64q0 35 13.5 65.5t36.5 53.5t53.5 36.5t65.5 13.5h103q-49 -21 -80 -66.5t-31 -102.5v-7h1v-162z" />
    <glyph glyph-name="f" unicode="f" horiz-adv-x="446" 
d="M0 570q0 35 13.5 65.5t36.5 53.5t53.5 36.5t65.5 13.5h249q-2 -34 -15.5 -63.5t-36.5 -51.5t-53 -34.5t-64 -12.5h-73v1h-7q-57 0 -102.5 -31t-66.5 -80v103zM0 404q2 32 15 60.5t35 49.5t50.5 33.5t60.5 14.5v-49q-54 -2 -97 -32t-64 -77zM0 329q0 35 13.5 65.5
t36.5 53.5t53.5 36.5t65.5 13.5h168q-2 -34 -15.5 -63.5t-36 -51t-52.5 -34t-64 -12.5q-57 0 -102.5 -31t-66.5 -80v103zM0 154q0 34 13 63.5t34.5 52t51 36t62.5 15.5v-153q0 -34 -12.5 -64t-34.5 -52.5t-51 -36.5t-63 -15v154z" />
    <glyph glyph-name="g" unicode="g" horiz-adv-x="605" 
d="M167 -236q1 34 15 63t37 51t53 34.5t64 12.5q57 0 102 31t67 80v-103q0 -35 -13.5 -65.5t-36.5 -53.5t-53.5 -36.5t-65.5 -13.5h-169zM328 163v-161h-160q-34 0 -64 13t-53 35t-36.5 51.5t-14.5 63.5q2 39 20 73q26 -34 64.5 -54.5t83.5 -20.5h160zM168 503
q32 -2 60.5 -15t50.5 -34.5t35 -50t14 -61.5h-160q-57 0 -102 -31t-66 -80v103q0 35 13 65.5t36 53.5t53.5 36.5t65.5 13.5zM505 110q0 -34 -13 -64t-34.5 -53t-51 -37t-63.5 -15l1 393q0 57 -31 102.5t-80 66.5h105q35 0 65 -13.5t52.5 -36.5t36 -53.5t13.5 -65.5v-224z
" />
    <glyph glyph-name="h" unicode="h" 
d="M0 325v8q0 35 13.5 65.5t36.5 53.5t53.5 36t65.5 13h103q-49 -21 -80 -66t-31 -102v-333q-34 1 -63.5 15t-51 37t-34 53t-12.5 64v156zM0 730q34 -2 63 -15.5t51 -36t34.5 -52.5t12.5 -64v-46q-54 -2 -97.5 -32t-63.5 -78v324zM345 501q35 0 66 -13t54 -36t36 -54t13 -66
v-332q-34 1 -63.5 15t-51 37t-34 53t-12.5 64v156v7q0 48 -22 87.5t-59 65.5q17 8 35 12t38 4z" />
    <glyph glyph-name="i" unicode="i" horiz-adv-x="261" 
d="M0 346q0 34 12.5 64t34 52.5t51 36t63.5 15.5v-345q0 -34 -12.5 -64t-34.5 -52.5t-51.5 -36.5t-62.5 -16v346zM161 730q-2 -33 -15 -61.5t-34.5 -50t-50 -34.5t-61.5 -14q1 33 14.5 61.5t35 50t50 34t61.5 14.5z" />
    <glyph glyph-name="j" unicode="j" horiz-adv-x="348" 
d="M87 570q2 33 15 61.5t34.5 50t50 34t61.5 14.5q-2 -33 -15 -61.5t-34.5 -50t-50 -34.5t-61.5 -14zM80 -77q57 0 102 31t66 80v-103q0 -35 -13 -65.5t-36 -53.5t-53.5 -36.5t-65.5 -13.5h-169q1 34 15 63t37 51t53 34.5t64 12.5zM87 346q0 34 12.5 64t34.5 52.5t51.5 36
t62.5 15.5v-407q0 -34 -12.5 -64t-34.5 -52.5t-51 -36.5t-63 -15v407z" />
    <glyph glyph-name="k" unicode="k" 
d="M353 529q1 33 14 61.5t35 50t50.5 34.5t61.5 15v-168q0 -35 -13.5 -66t-36.5 -54t-53.5 -36t-65.5 -13q-38 0 -73 16q37 26 59 65.5t22 87.5v7zM345 337q35 0 65.5 -13t53.5 -36t36.5 -53.5t13.5 -65.5v-169q-33 1 -61.5 14.5t-50.5 35t-35 50t-14 61.5v8q0 48 -22 87.5
t-59 64.5q35 16 73 16zM0 730q33 -2 62.5 -15.5t51.5 -36.5t34.5 -53t12.5 -64v-561q-34 1 -63.5 15t-51 37t-34 53t-12.5 64v561zM176 448v-206q17 38 47 65t69 38q-39 12 -69 39t-47 64z" />
    <glyph glyph-name="m" unicode="m" horiz-adv-x="967" 
d="M698 501q35 0 65.5 -13t53.5 -36t36.5 -54t13.5 -66v-332q-34 1 -63.5 15t-51 37t-34 53t-12.5 64v156v7q0 48 -22 87.5t-59 65.5q35 16 73 16zM0 325v8q0 35 13.5 65.5t36.5 53.5t53.5 36t65.5 13h102q-49 -21 -79.5 -66t-30.5 -102v-333q-34 1 -63.5 15t-51 37t-34 53
t-12.5 64v156zM345 501q35 0 65.5 -13t53.5 -36t36.5 -54t13.5 -66v-332q-34 1 -63.5 15t-51 37t-34 53t-12.5 64v156v7q0 48 -22 87.5t-59 65.5q35 16 73 16zM624 501q-37 -16 -64 -46.5t-38 -69.5q-10 31 -28.5 56.5t-44.5 43.5q35 16 73 16h102z" />
    <glyph glyph-name="n" unicode="n" 
d="M353 332q0 48 -22 87.5t-58 64.5q35 16 72 16q35 0 66 -13t54 -36t36 -53.5t13 -65.5v-333q-33 1 -62.5 15t-51.5 37t-34.5 53t-12.5 64v164zM272 500q-49 -21 -80 -66t-31 -102v-333q-33 1 -62.5 15t-51.5 37t-34.5 53t-12.5 64v164q0 35 13.5 65.5t36.5 53.5t53.5 36
t65.5 13h103z" />
    <glyph glyph-name="p" unicode="p" horiz-adv-x="601" 
d="M271 514q-49 -22 -79.5 -67t-30.5 -102v-169q-54 -2 -97.5 -32.5t-63.5 -78.5v280q0 34 13 64.5t35.5 53.5t52.5 36.5t65 14.5h105zM161 -16v-41q0 -34 -12.5 -64t-34.5 -52.5t-51 -36.5t-63 -15v209h161zM501 345q0 -34 -12.5 -64t-34.5 -53t-51.5 -37t-62.5 -15v169
q0 46 -20.5 84.5t-54.5 63.5q34 19 74 20q34 -1 63.5 -14.5t51.5 -36t34.5 -52.5t12.5 -64v-1zM332 160q57 0 102.5 31t66.5 80v-103q0 -35 -13.5 -65.5t-36.5 -53.5t-53.5 -36t-65.5 -13h-332q1 33 15 62.5t37 51.5t53 34.5t64 12.5z" />
    <glyph glyph-name="q" unicode="q" horiz-adv-x="601" 
d="M229 514h106q34 -1 64.5 -14.5t53 -36.5t35.5 -53.5t13 -64.5v-280q-20 48 -63.5 78.5t-97.5 32.5v169q0 57 -30.5 102t-80.5 67zM501 -16v-209q-34 1 -63.5 15t-51 36.5t-34 52.5t-12.5 64v41h161zM0 346q0 34 12.5 64t34.5 52.5t51.5 36t63.5 14.5q40 -1 74 -20
q-34 -25 -54.5 -63.5t-20.5 -84.5v-169q-33 1 -62.5 15t-51.5 37t-34.5 53t-12.5 64v1zM169 160l163 1q34 0 64 -12.5t53 -34.5t36.5 -51.5t15.5 -62.5h-332q-35 0 -65.5 13t-53.5 36t-36.5 53.5t-13.5 65.5v103q21 -49 66.5 -80t102.5 -31z" />
    <glyph glyph-name="r" unicode="r" horiz-adv-x="407" 
d="M0 168q0 34 12.5 64t34 53t51 36.5t63.5 15.5v-169q0 -34 -12.5 -64t-34.5 -52.5t-51 -36.5t-63 -15v168zM337 514q-2 -33 -15 -61.5t-34.5 -50.5t-50 -35t-61.5 -14h-7q-57 0 -102.5 -31t-66.5 -80v103q0 35 13 65.5t36 53.5t54 36.5t66 13.5h168z" />
    <glyph glyph-name="s" unicode="s" horiz-adv-x="566" 
d="M466 514q-2 -34 -16 -63.5t-36.5 -51t-52.5 -34.5t-64 -13l-128 1q-57 0 -102.5 -31t-66.5 -80v103q0 35 13.5 65.5t36.5 53.5t53.5 36.5t65.5 13.5h297zM297 160q57 0 102 31t67 80v-103q0 -35 -13.5 -65.5t-36.5 -53.5t-53.5 -36t-65.5 -13h-297q1 33 15 62.5t37 51.5
t53 34.5t64 12.5zM466 337q-2 -33 -15 -62t-35.5 -51t-51.5 -34.5t-62 -13.5h-302q1 33 14.5 62t36 50.5t51.5 34.5t62 14h302z" />
    <glyph glyph-name="o" unicode="o" horiz-adv-x="601" 
d="M500 498q-2 -33 -15.5 -62.5t-36 -51.5t-52.5 -34.5t-64 -12.5h-164q-57 0 -102 -30.5t-66 -79.5v102q0 35 13 66t36 54t53.5 36t65.5 13h332zM339 322q55 2 98 32.5t64 77.5v-263q0 -35 -13.5 -65.5t-36.5 -53.5t-53.5 -36.5t-64.5 -13.5h-1h-103q49 21 80 66.5
t31 102.5zM161 169q0 -46 20 -84.5t55 -64.5q-34 -18 -74 -20q-34 1 -63.5 12.5t-51.5 31t-34.5 47t-12.5 61.5v1q0 44 20 80.5t54 59.5q38 26 87 29v-153z" />
    <glyph glyph-name="t" unicode="t" horiz-adv-x="523" 
d="M125 329q0 34 12.5 64t34 53t51 36.5t63.5 15.5v-330q0 -34 -12.5 -64t-34.5 -52.5t-51 -36.5t-63 -15v329zM125 506q0 35 13 65.5t36 53.5t54 36.5t66 13.5h168q-2 -33 -15 -62t-34.5 -50.5t-50 -34.5t-61.5 -14h-7q-57 0 -102.5 -31t-66.5 -80v103zM110 514
q-33 1 -61.5 14t-50 35t-35 50.5t-14.5 61.5h168q39 0 73 -17q-35 -24 -56.5 -61.5t-23.5 -82.5z" />
    <glyph glyph-name="u" unicode="u" horiz-adv-x="582" 
d="M0 514q34 -2 63.5 -15.5t51 -36.5t34.5 -53t13 -64v-169h-1v-7q0 -57 31 -102.5t80 -66.5h-103q-35 0 -65.5 13t-53.5 36t-36.5 54t-13.5 66v345zM329 1q-20 2 -39 8.5t-36 17.5q31 26 49 62.5t18 79.5v7v169q0 34 12.5 64t34 53t51 36.5t63.5 15.5v-345q0 -33 -12 -62.5
t-32.5 -52t-48.5 -36.5t-60 -17z" />
    <glyph glyph-name="v" unicode="v" horiz-adv-x="597" 
d="M-31 515q35 -2 67 -15.5t56.5 -36.5t41 -53.5t19.5 -64.5l17 -139l1 -8q2 -25 7.5 -65t16.5 -79q9 -29 22 -54.5t33 -37.5q-5 0 -9.5 -0.5t-9.5 -0.5q-40 0 -78 16t-69.5 46.5t-52.5 75t-27 101.5zM278 -30q-21 0 -36 20q14 21 23 49.5t15 58t9.5 57t5.5 45.5l1 8h-1
l17 139q3 34 19.5 64t41 52.5t56.5 36t67 15.5l-34 -314q-5 -47 -20 -85t-37.5 -67t-51.5 -48.5t-61 -28.5q-5 -2 -14 -2z" />
    <glyph glyph-name="w" unicode="w" horiz-adv-x="967" 
d="M706 345q0 34 12.5 64t34 53t51 36.5t63.5 15.5v-345q0 -35 -13.5 -66t-36.5 -54t-53.5 -36t-65.5 -13q-38 0 -73 16q37 26 59 65.5t22 87.5v176zM161 169q0 -57 31 -102.5t80 -66.5h-103q-35 0 -65.5 13t-53.5 36t-36.5 54t-13.5 66v176q0 34 12.5 64t34 53t51 36.5
t63.5 15.5v-345zM353 345q0 34 12.5 64t34 53t51 36.5t63.5 15.5v-345q0 -35 -13.5 -66t-36.5 -54t-53.5 -36t-65.5 -13q-38 0 -73 16q37 26 59 65.5t22 87.5v176zM522 0q-39 0 -73 17q53 36 73 99q11 -39 38 -69.5t65 -46.5h-103z" />
    <glyph glyph-name="x" unicode="x" 
d="M176 346q0 35 13.5 65.5t36.5 53.5t53.5 36.5t65.5 13.5h169q-2 -33 -15 -62t-34.5 -50.5t-50.5 -35t-62 -14.5v1h-7q-57 0 -102 -31t-67 -80v103zM345 0q-39 0 -73 17q35 24 56.5 61.5t23.5 82.5q33 -2 62 -14.5t50.5 -34.5t34.5 -50.5t15 -61.5h-169zM176 177
q1 33 14.5 61.5t35 50t50 34.5t61.5 15q-2 -33 -14.5 -61.5t-34.5 -50t-50.5 -35t-61.5 -14.5zM161 354q-33 1 -61.5 14t-50 34.5t-35 50.5t-14.5 62h168q20 0 38 -4.5t35 -12.5q-35 -24 -56.5 -61.5t-23.5 -82.5zM0 0q1 33 14.5 61.5t35 50.5t50 34.5t61.5 14.5h8
q57 0 102 31t66 80v-103q0 -35 -13 -65.5t-36 -53.5t-53.5 -36.5t-65.5 -13.5h-169z" />
    <glyph glyph-name="y" unicode="y" horiz-adv-x="622" 
d="M184 -240q1 33 15 62.5t37 51.5t53 34.5t64 12.5q57 0 102 30.5t67 80.5v-103q0 -35 -13.5 -66t-36.5 -54t-53.5 -36t-65.5 -13h-169zM-1 514q34 -2 63 -15.5t51 -36t34.5 -52.5t12.5 -64v-169v-8q0 -57 30.5 -102t80.5 -67h-103q-35 0 -65.5 13.5t-53.5 36.5t-36.5 53.5
t-13.5 65.5v345zM344 0q-37 0 -68 15q38 24 61.5 64.5t23.5 89.5v8h-1v169q0 34 13 64t34.5 52.5t51 36t63.5 15.5v-345q0 -35 -13.5 -65.5t-36.5 -53.5t-53.5 -36.5t-65.5 -13.5h-9zM360 -15q54 2 97.5 32t63.5 78q-2 -32 -15 -60.5t-34.5 -50t-50 -34.5t-61.5 -14v49z" />
    <glyph glyph-name="z" unicode="z" horiz-adv-x="565" 
d="M297 514q35 0 65.5 -13t53.5 -36t36 -54t13 -66v-102q-21 49 -66 79.5t-102 30.5h-128q-34 0 -64 12.5t-53 34t-37 51t-15 63.5h297zM169 161h128q34 0 64 -12.5t52.5 -34.5t36 -51t15.5 -63h-297q-35 0 -65.5 13.5t-53.5 36.5t-36 53.5t-13 65.5v103q21 -50 66.5 -80.5
t102.5 -30.5zM301 338q33 -1 62.5 -14t51.5 -35t35 -51t15 -62h-301q-33 1 -62.5 14t-51.5 34.5t-35.5 51t-14.5 62.5h301z" />
    <glyph glyph-name="c" unicode="c" horiz-adv-x="600" 
d="M0 271q21 -49 66 -79.5t102 -30.5h8h156q34 0 64 -12.5t52.5 -34.5t36 -51.5t15.5 -62.5h-332q-35 0 -65.5 13t-53.5 36t-36 53.5t-13 65.5v103zM500 522q-2 -33 -15.5 -62.5t-36 -51.5t-52.5 -34.5t-64 -12.5h-164q-49 0 -89.5 -23t-64.5 -61q-14 31 -14 65v11
q0 35 13 66t36 54t53.5 36t65.5 13h332z" />
    <glyph glyph-name="a" unicode="a" 
d="M169 0q-35 0 -65 13t-53 35.5t-36.5 52.5t-14.5 65v105q22 -49 67 -79.5t102 -30.5h7h162q2 -54 32.5 -97.5t77.5 -63.5h-279zM1 339q1 33 14.5 62.5t36.5 51.5t53 35t64 13h103q-49 -22 -80 -67t-31 -102v-7v-149q-33 1 -61.5 14.5t-50 35.5t-34.5 51t-14 62zM353 325v7
q0 57 -30.5 102t-79.5 67h103q35 0 65.5 -13.5t53.5 -36.5t36 -53.5t13 -65.5v-332q-33 1 -62.5 15t-51.5 36.5t-34.5 52.5t-12.5 64v157z" />
    <glyph glyph-name="l" unicode="l" horiz-adv-x="438" 
d="M1 561q0 34 12.5 64t34 53t51 36.5t63.5 15.5v-554q-34 1 -63.5 15t-51 37t-34 53t-12.5 64v216zM1 271q21 -49 66.5 -79.5t102.5 -30.5h5q33 -1 62 -14t51 -35t35 -50.5t15 -61.5h-168q-35 0 -66 13t-54 36t-36 53.5t-13 65.5v103z" />
    <glyph glyph-name="b" unicode="b" horiz-adv-x="600" 
d="M325 353h-156q-34 0 -64 12.5t-53 34t-37 51t-15 63.5h333q35 0 65.5 -13.5t53.5 -36.5t36 -53.5t13 -65.5v-103q-21 49 -66 80t-102 31h-8zM0 448q21 -48 64 -78.5t97 -32.5v-162v-7q0 -57 31 -102t80 -66h-103q-35 0 -65.5 13t-53.5 36t-36.5 53.5t-13.5 65.5v280z
M0 739q34 -2 63 -15.5t51 -36.5t34.5 -53t12.5 -64v-41h-161v210zM339 0q-40 1 -74 20q35 26 55 64.5t20 83.5v7v162q34 -2 63 -15.5t51 -36.5t34.5 -53t12.5 -64t-12.5 -64t-34.5 -53t-51.5 -36.5t-63.5 -14.5z" />
    <glyph glyph-name="A" unicode="A" 
d="M169 0q-35 0 -65 13t-53 35.5t-36.5 52.5t-14.5 65v105q22 -49 67 -79.5t102 -30.5h7h162q2 -54 32.5 -97.5t77.5 -63.5h-279zM1 339q1 33 14.5 62.5t36.5 51.5t53 35t64 13h103q-49 -22 -80 -67t-31 -102v-7v-149q-33 1 -61.5 14.5t-50 35.5t-34.5 51t-14 62zM353 325v7
q0 57 -30.5 102t-79.5 67h103q35 0 65.5 -13.5t53.5 -36.5t36 -53.5t13 -65.5v-332q-33 1 -62.5 15t-51.5 36.5t-34.5 52.5t-12.5 64v157z" />
    <glyph glyph-name="B" unicode="B" horiz-adv-x="600" 
d="M325 353h-156q-34 0 -64 12.5t-53 34t-37 51t-15 63.5h333q35 0 65.5 -13.5t53.5 -36.5t36 -53.5t13 -65.5v-103q-21 49 -66 80t-102 31h-8zM0 448q21 -48 64 -78.5t97 -32.5v-162v-7q0 -57 31 -102t80 -66h-103q-35 0 -65.5 13t-53.5 36t-36.5 53.5t-13.5 65.5v280z
M0 739q34 -2 63 -15.5t51 -36.5t34.5 -53t12.5 -64v-41h-161v210zM339 0q-40 1 -74 20q35 26 55 64.5t20 83.5v7v162q34 -2 63 -15.5t51 -36.5t34.5 -53t12.5 -64t-12.5 -64t-34.5 -53t-51.5 -36.5t-63.5 -14.5z" />
    <glyph glyph-name="C" unicode="C" horiz-adv-x="600" 
d="M0 271q21 -49 66 -79.5t102 -30.5h8h156q34 0 64 -12.5t52.5 -34.5t36 -51.5t15.5 -62.5h-332q-35 0 -65.5 13t-53.5 36t-36 53.5t-13 65.5v103zM500 522q-2 -33 -15.5 -62.5t-36 -51.5t-52.5 -34.5t-64 -12.5h-164q-49 0 -89.5 -23t-64.5 -61q-14 31 -14 65v11
q0 35 13 66t36 54t53.5 36t65.5 13h332z" />
    <glyph glyph-name="D" unicode="D" horiz-adv-x="601" 
d="M169 353q-57 0 -102.5 -31t-66.5 -80v103q0 35 13 65.5t36 53.5t54 36.5t66 13.5h332q-2 -34 -15.5 -63.5t-36.5 -51t-53 -34t-64 -12.5h-156h-7zM501 168q0 -35 -13.5 -65.5t-36.5 -53.5t-53.5 -36t-65.5 -13h-103q49 21 80 66t31 102v7v162q54 2 97 32.5t64 78.5v-280z
M340 529v41q0 34 12.5 64t34 53t51 36.5t63.5 15.5v-210h-161zM162 0q-34 1 -63.5 14.5t-51.5 36.5t-34.5 53t-12.5 64t12.5 64t34 53t51 36.5t63.5 15.5v-162v-7q0 -45 20 -83.5t55 -64.5q-34 -19 -74 -20z" />
    <glyph glyph-name="E" unicode="E" horiz-adv-x="615" 
d="M0 346v-1v1zM346 514q35 0 65.5 -13.5t53.5 -36.5t36.5 -53.5t13.5 -65.5t-13.5 -65.5t-36.5 -53.5t-53.5 -36.5t-65.5 -13.5h-103q48 21 78.5 64t32.5 98v7v1v-1q0 48 -22 87.5t-59 64.5q34 17 73 17zM0 271q22 -49 67 -79.5t102 -30.5h8h156q34 0 64 -12.5t52.5 -34.5
t36 -51.5t15.5 -62.5h-332q-35 0 -65.5 13t-53.5 36t-36.5 53.5t-13.5 65.5v103zM162 176q-34 1 -63.5 15t-51 37t-34.5 53t-13 64q0 35 13.5 65.5t36.5 53.5t53.5 36.5t65.5 13.5h103q-49 -21 -80 -66.5t-31 -102.5v-7h1v-162z" />
    <glyph glyph-name="F" unicode="F" horiz-adv-x="446" 
d="M0 570q0 35 13.5 65.5t36.5 53.5t53.5 36.5t65.5 13.5h249q-2 -34 -15.5 -63.5t-36.5 -51.5t-53 -34.5t-64 -12.5h-73v1h-7q-57 0 -102.5 -31t-66.5 -80v103zM0 404q2 32 15 60.5t35 49.5t50.5 33.5t60.5 14.5v-49q-54 -2 -97 -32t-64 -77zM0 329q0 35 13.5 65.5
t36.5 53.5t53.5 36.5t65.5 13.5h168q-2 -34 -15.5 -63.5t-36 -51t-52.5 -34t-64 -12.5q-57 0 -102.5 -31t-66.5 -80v103zM0 154q0 34 13 63.5t34.5 52t51 36t62.5 15.5v-153q0 -34 -12.5 -64t-34.5 -52.5t-51 -36.5t-63 -15v154z" />
    <glyph glyph-name="G" unicode="G" horiz-adv-x="605" 
d="M167 -236q1 34 15 63t37 51t53 34.5t64 12.5q57 0 102 31t67 80v-103q0 -35 -13.5 -65.5t-36.5 -53.5t-53.5 -36.5t-65.5 -13.5h-169zM328 163v-161h-160q-34 0 -64 13t-53 35t-36.5 51.5t-14.5 63.5q2 39 20 73q26 -34 64.5 -54.5t83.5 -20.5h160zM168 503
q32 -2 60.5 -15t50.5 -34.5t35 -50t14 -61.5h-160q-57 0 -102 -31t-66 -80v103q0 35 13 65.5t36 53.5t53.5 36.5t65.5 13.5zM505 110q0 -34 -13 -64t-34.5 -53t-51 -37t-63.5 -15l1 393q0 57 -31 102.5t-80 66.5h105q35 0 65 -13.5t52.5 -36.5t36 -53.5t13.5 -65.5v-224z
" />
    <glyph glyph-name="H" unicode="H" 
d="M0 325v8q0 35 13.5 65.5t36.5 53.5t53.5 36t65.5 13h103q-49 -21 -80 -66t-31 -102v-333q-34 1 -63.5 15t-51 37t-34 53t-12.5 64v156zM0 730q34 -2 63 -15.5t51 -36t34.5 -52.5t12.5 -64v-46q-54 -2 -97.5 -32t-63.5 -78v324zM345 501q35 0 66 -13t54 -36t36 -54t13 -66
v-332q-34 1 -63.5 15t-51 37t-34 53t-12.5 64v156v7q0 48 -22 87.5t-59 65.5q17 8 35 12t38 4z" />
    <glyph glyph-name="I" unicode="I" horiz-adv-x="261" 
d="M0 346q0 34 12.5 64t34 52.5t51 36t63.5 15.5v-345q0 -34 -12.5 -64t-34.5 -52.5t-51.5 -36.5t-62.5 -16v346zM161 730q-2 -33 -15 -61.5t-34.5 -50t-50 -34.5t-61.5 -14q1 33 14.5 61.5t35 50t50 34t61.5 14.5z" />
    <glyph glyph-name="J" unicode="J" horiz-adv-x="348" 
d="M87 570q2 33 15 61.5t34.5 50t50 34t61.5 14.5q-2 -33 -15 -61.5t-34.5 -50t-50 -34.5t-61.5 -14zM80 -77q57 0 102 31t66 80v-103q0 -35 -13 -65.5t-36 -53.5t-53.5 -36.5t-65.5 -13.5h-169q1 34 15 63t37 51t53 34.5t64 12.5zM87 346q0 34 12.5 64t34.5 52.5t51.5 36
t62.5 15.5v-407q0 -34 -12.5 -64t-34.5 -52.5t-51 -36.5t-63 -15v407z" />
    <glyph glyph-name="K" unicode="K" 
d="M353 529q1 33 14 61.5t35 50t50.5 34.5t61.5 15v-168q0 -35 -13.5 -66t-36.5 -54t-53.5 -36t-65.5 -13q-38 0 -73 16q37 26 59 65.5t22 87.5v7zM345 337q35 0 65.5 -13t53.5 -36t36.5 -53.5t13.5 -65.5v-169q-33 1 -61.5 14.5t-50.5 35t-35 50t-14 61.5v8q0 48 -22 87.5
t-59 64.5q35 16 73 16zM0 730q33 -2 62.5 -15.5t51.5 -36.5t34.5 -53t12.5 -64v-561q-34 1 -63.5 15t-51 37t-34 53t-12.5 64v561zM176 448v-206q17 38 47 65t69 38q-39 12 -69 39t-47 64z" />
    <glyph glyph-name="L" unicode="L" horiz-adv-x="438" 
d="M1 561q0 34 12.5 64t34 53t51 36.5t63.5 15.5v-554q-34 1 -63.5 15t-51 37t-34 53t-12.5 64v216zM1 271q21 -49 66.5 -79.5t102.5 -30.5h5q33 -1 62 -14t51 -35t35 -50.5t15 -61.5h-168q-35 0 -66 13t-54 36t-36 53.5t-13 65.5v103z" />
    <glyph glyph-name="M" unicode="M" horiz-adv-x="967" 
d="M698 501q35 0 65.5 -13t53.5 -36t36.5 -54t13.5 -66v-332q-34 1 -63.5 15t-51 37t-34 53t-12.5 64v156v7q0 48 -22 87.5t-59 65.5q35 16 73 16zM0 325v8q0 35 13.5 65.5t36.5 53.5t53.5 36t65.5 13h102q-49 -21 -79.5 -66t-30.5 -102v-333q-34 1 -63.5 15t-51 37t-34 53
t-12.5 64v156zM345 501q35 0 65.5 -13t53.5 -36t36.5 -54t13.5 -66v-332q-34 1 -63.5 15t-51 37t-34 53t-12.5 64v156v7q0 48 -22 87.5t-59 65.5q35 16 73 16zM624 501q-37 -16 -64 -46.5t-38 -69.5q-10 31 -28.5 56.5t-44.5 43.5q35 16 73 16h102z" />
    <glyph glyph-name="N" unicode="N" 
d="M353 332q0 48 -22 87.5t-58 64.5q35 16 72 16q35 0 66 -13t54 -36t36 -53.5t13 -65.5v-333q-33 1 -62.5 15t-51.5 37t-34.5 53t-12.5 64v164zM272 500q-49 -21 -80 -66t-31 -102v-333q-33 1 -62.5 15t-51.5 37t-34.5 53t-12.5 64v164q0 35 13.5 65.5t36.5 53.5t53.5 36
t65.5 13h103z" />
    <glyph glyph-name="O" unicode="O" horiz-adv-x="601" 
d="M500 498q-2 -33 -15.5 -62.5t-36 -51.5t-52.5 -34.5t-64 -12.5h-164q-57 0 -102 -30.5t-66 -79.5v102q0 35 13 66t36 54t53.5 36t65.5 13h332zM339 322q55 2 98 32.5t64 77.5v-263q0 -35 -13.5 -65.5t-36.5 -53.5t-53.5 -36.5t-64.5 -13.5h-1h-103q49 21 80 66.5
t31 102.5zM161 169q0 -46 20 -84.5t55 -64.5q-34 -18 -74 -20q-34 1 -63.5 12.5t-51.5 31t-34.5 47t-12.5 61.5v1q0 44 20 80.5t54 59.5q38 26 87 29v-153z" />
    <glyph glyph-name="P" unicode="P" horiz-adv-x="601" 
d="M271 514q-49 -22 -79.5 -67t-30.5 -102v-169q-54 -2 -97.5 -32.5t-63.5 -78.5v280q0 34 13 64.5t35.5 53.5t52.5 36.5t65 14.5h105zM161 -16v-41q0 -34 -12.5 -64t-34.5 -52.5t-51 -36.5t-63 -15v209h161zM501 345q0 -34 -12.5 -64t-34.5 -53t-51.5 -37t-62.5 -15v169
q0 46 -20.5 84.5t-54.5 63.5q34 19 74 20q34 -1 63.5 -14.5t51.5 -36t34.5 -52.5t12.5 -64v-1zM332 160q57 0 102.5 31t66.5 80v-103q0 -35 -13.5 -65.5t-36.5 -53.5t-53.5 -36t-65.5 -13h-332q1 33 15 62.5t37 51.5t53 34.5t64 12.5z" />
    <glyph glyph-name="Q" unicode="Q" horiz-adv-x="601" 
d="M229 514h106q34 -1 64.5 -14.5t53 -36.5t35.5 -53.5t13 -64.5v-280q-20 48 -63.5 78.5t-97.5 32.5v169q0 57 -30.5 102t-80.5 67zM501 -16v-209q-34 1 -63.5 15t-51 36.5t-34 52.5t-12.5 64v41h161zM0 346q0 34 12.5 64t34.5 52.5t51.5 36t63.5 14.5q40 -1 74 -20
q-34 -25 -54.5 -63.5t-20.5 -84.5v-169q-33 1 -62.5 15t-51.5 37t-34.5 53t-12.5 64v1zM169 160l163 1q34 0 64 -12.5t53 -34.5t36.5 -51.5t15.5 -62.5h-332q-35 0 -65.5 13t-53.5 36t-36.5 53.5t-13.5 65.5v103q21 -49 66.5 -80t102.5 -31z" />
    <glyph glyph-name="R" unicode="R" horiz-adv-x="407" 
d="M0 168q0 34 12.5 64t34 53t51 36.5t63.5 15.5v-169q0 -34 -12.5 -64t-34.5 -52.5t-51 -36.5t-63 -15v168zM337 514q-2 -33 -15 -61.5t-34.5 -50.5t-50 -35t-61.5 -14h-7q-57 0 -102.5 -31t-66.5 -80v103q0 35 13 65.5t36 53.5t54 36.5t66 13.5h168z" />
    <glyph glyph-name="S" unicode="S" horiz-adv-x="566" 
d="M466 514q-2 -34 -16 -63.5t-36.5 -51t-52.5 -34.5t-64 -13l-128 1q-57 0 -102.5 -31t-66.5 -80v103q0 35 13.5 65.5t36.5 53.5t53.5 36.5t65.5 13.5h297zM297 160q57 0 102 31t67 80v-103q0 -35 -13.5 -65.5t-36.5 -53.5t-53.5 -36t-65.5 -13h-297q1 33 15 62.5t37 51.5
t53 34.5t64 12.5zM466 337q-2 -33 -15 -62t-35.5 -51t-51.5 -34.5t-62 -13.5h-302q1 33 14.5 62t36 50.5t51.5 34.5t62 14h302z" />
    <glyph glyph-name="T" unicode="T" horiz-adv-x="523" 
d="M125 329q0 34 12.5 64t34 53t51 36.5t63.5 15.5v-330q0 -34 -12.5 -64t-34.5 -52.5t-51 -36.5t-63 -15v329zM125 506q0 35 13 65.5t36 53.5t54 36.5t66 13.5h168q-2 -33 -15 -62t-34.5 -50.5t-50 -34.5t-61.5 -14h-7q-57 0 -102.5 -31t-66.5 -80v103zM110 514
q-33 1 -61.5 14t-50 35t-35 50.5t-14.5 61.5h168q39 0 73 -17q-35 -24 -56.5 -61.5t-23.5 -82.5z" />
    <glyph glyph-name="U" unicode="U" horiz-adv-x="582" 
d="M0 514q34 -2 63.5 -15.5t51 -36.5t34.5 -53t13 -64v-169h-1v-7q0 -57 31 -102.5t80 -66.5h-103q-35 0 -65.5 13t-53.5 36t-36.5 54t-13.5 66v345zM329 1q-20 2 -39 8.5t-36 17.5q31 26 49 62.5t18 79.5v7v169q0 34 12.5 64t34 53t51 36.5t63.5 15.5v-345q0 -33 -12 -62.5
t-32.5 -52t-48.5 -36.5t-60 -17z" />
    <glyph glyph-name="V" unicode="V" horiz-adv-x="597" 
d="M-31 515q35 -2 67 -15.5t56.5 -36.5t41 -53.5t19.5 -64.5l17 -139l1 -8q2 -25 7.5 -65t16.5 -79q9 -29 22 -54.5t33 -37.5q-5 0 -9.5 -0.5t-9.5 -0.5q-40 0 -78 16t-69.5 46.5t-52.5 75t-27 101.5zM278 -30q-21 0 -36 20q14 21 23 49.5t15 58t9.5 57t5.5 45.5l1 8h-1
l17 139q3 34 19.5 64t41 52.5t56.5 36t67 15.5l-34 -314q-5 -47 -20 -85t-37.5 -67t-51.5 -48.5t-61 -28.5q-5 -2 -14 -2z" />
    <glyph glyph-name="W" unicode="W" horiz-adv-x="967" 
d="M706 345q0 34 12.5 64t34 53t51 36.5t63.5 15.5v-345q0 -35 -13.5 -66t-36.5 -54t-53.5 -36t-65.5 -13q-38 0 -73 16q37 26 59 65.5t22 87.5v176zM161 169q0 -57 31 -102.5t80 -66.5h-103q-35 0 -65.5 13t-53.5 36t-36.5 54t-13.5 66v176q0 34 12.5 64t34 53t51 36.5
t63.5 15.5v-345zM353 345q0 34 12.5 64t34 53t51 36.5t63.5 15.5v-345q0 -35 -13.5 -66t-36.5 -54t-53.5 -36t-65.5 -13q-38 0 -73 16q37 26 59 65.5t22 87.5v176zM522 0q-39 0 -73 17q53 36 73 99q11 -39 38 -69.5t65 -46.5h-103z" />
    <glyph glyph-name="X" unicode="X" 
d="M176 346q0 35 13.5 65.5t36.5 53.5t53.5 36.5t65.5 13.5h169q-2 -33 -15 -62t-34.5 -50.5t-50.5 -35t-62 -14.5v1h-7q-57 0 -102 -31t-67 -80v103zM345 0q-39 0 -73 17q35 24 56.5 61.5t23.5 82.5q33 -2 62 -14.5t50.5 -34.5t34.5 -50.5t15 -61.5h-169zM176 177
q1 33 14.5 61.5t35 50t50 34.5t61.5 15q-2 -33 -14.5 -61.5t-34.5 -50t-50.5 -35t-61.5 -14.5zM161 354q-33 1 -61.5 14t-50 34.5t-35 50.5t-14.5 62h168q20 0 38 -4.5t35 -12.5q-35 -24 -56.5 -61.5t-23.5 -82.5zM0 0q1 33 14.5 61.5t35 50.5t50 34.5t61.5 14.5h8
q57 0 102 31t66 80v-103q0 -35 -13 -65.5t-36 -53.5t-53.5 -36.5t-65.5 -13.5h-169z" />
    <glyph glyph-name="Y" unicode="Y" horiz-adv-x="622" 
d="M184 -240q1 33 15 62.5t37 51.5t53 34.5t64 12.5q57 0 102 30.5t67 80.5v-103q0 -35 -13.5 -66t-36.5 -54t-53.5 -36t-65.5 -13h-169zM-1 514q34 -2 63 -15.5t51 -36t34.5 -52.5t12.5 -64v-169v-8q0 -57 30.5 -102t80.5 -67h-103q-35 0 -65.5 13.5t-53.5 36.5t-36.5 53.5
t-13.5 65.5v345zM344 0q-37 0 -68 15q38 24 61.5 64.5t23.5 89.5v8h-1v169q0 34 13 64t34.5 52.5t51 36t63.5 15.5v-345q0 -35 -13.5 -65.5t-36.5 -53.5t-53.5 -36.5t-65.5 -13.5h-9zM360 -15q54 2 97.5 32t63.5 78q-2 -32 -15 -60.5t-34.5 -50t-50 -34.5t-61.5 -14v49z" />
    <glyph glyph-name="Z" unicode="Z" horiz-adv-x="565" 
d="M297 514q35 0 65.5 -13t53.5 -36t36 -54t13 -66v-102q-21 49 -66 79.5t-102 30.5h-128q-34 0 -64 12.5t-53 34t-37 51t-15 63.5h297zM169 161h128q34 0 64 -12.5t52.5 -34.5t36 -51t15.5 -63h-297q-35 0 -65.5 13.5t-53.5 36.5t-36 53.5t-13 65.5v103q21 -50 66.5 -80.5
t102.5 -30.5zM301 338q33 -1 62.5 -14t51.5 -35t35 -51t15 -62h-301q-33 1 -62.5 14t-51.5 34.5t-35.5 51t-14.5 62.5h301z" />
  </font>
</defs>
</svg>
